<svg xmlns="http://www.w3.org/2000/svg" viewBox="0 0 32 32" width="512px" height="512px">
        <path fill="#FFFFFF" d="M 6 8 L 1 13 L 1.7070312 13.707031 L 6 18 L 11 13 L 6 8 z M 11 13 L 11.707031 13.707031 L 16 18 L 21 13 L 16 8 L 11 13 z M 21 13 L 21.707031 13.707031 L 26 18 L 31 13 L 26 8 L 21 13 z M 16 18 L 11 23 L 11.707031 23.707031 L 16 28 L 21 23 L 16 18 z M 6 10.828125 L 8.171875 13 L 6 15.171875 L 3.828125 13 L 6 10.828125 z M 16 10.828125 L 18.171875 13 L 16 15.171875 L 13.828125 13 L 16 10.828125 z M 26 10.828125 L 28.171875 13 L 26 15.171875 L 23.828125 13 L 26 10.828125 z M 16 20.828125 L 18.171875 23 L 16 25.171875 L 13.828125 23 L 16 20.828125 z"/></svg>
